<svg width="38" height="38" viewBox="0 0 38 38" fill="none" xmlns="http://www.w3.org/2000/svg">
<path d="M0.00320158 37.107C-0.196798 27.607 9.00313 19.5072 19.3031 22.0072C17.7031 24.5072 17.1032 27.2071 17.7032 30.2071C18.3032 33.1071 19.9031 35.4071 22.3031 37.2071C14.8031 37.1071 7.4032 37.107 0.00320158 37.107Z" fill="white"/>
<path d="M24.2032 8.50703C24.2032 13.307 20.4032 17.207 15.6032 17.207C10.7032 17.207 7.10322 13.3071 7.00322 8.80707C6.90322 3.90707 10.8031 0.107025 15.4031 0.00702529C20.4031 -0.192975 24.2032 3.90703 24.2032 8.50703Z" fill="white"/>
<path d="M28.3031 19.1069C33.3031 19.1069 37.2031 23.1069 37.2031 28.1069C37.2031 32.9069 33.2031 37.0071 28.1031 37.0071C23.2031 36.9071 19.3031 32.907 19.3031 27.907C19.5031 23.007 23.5031 19.1069 28.3031 19.1069ZM28.4031 21.0071C24.5031 21.0071 21.3031 24.2069 21.3031 28.1069C21.3031 32.0069 24.5031 35.1069 28.4031 35.1069C32.3031 35.1069 35.4031 31.9071 35.4031 28.0071C35.4031 24.1071 32.2031 21.0071 28.4031 21.0071Z" fill="white"/>
<path d="M27.4137 29.244V29.1729C27.4216 28.4179 27.5007 27.817 27.6509 27.3703C27.8011 26.9236 28.0146 26.5619 28.2913 26.2852C28.568 26.0085 28.9 25.7535 29.2874 25.5203C29.5206 25.378 29.7302 25.21 29.9159 25.0163C30.1017 24.8187 30.248 24.5914 30.3547 24.3344C30.4654 24.0775 30.5208 23.7929 30.5208 23.4806C30.5208 23.0932 30.4298 22.7572 30.248 22.4726C30.0662 22.1879 29.823 21.9685 29.5187 21.8144C29.2143 21.6602 28.8763 21.5831 28.5047 21.5831C28.1806 21.5831 27.8683 21.6503 27.5679 21.7847C27.2674 21.9191 27.0164 22.1306 26.8148 22.4192C26.6132 22.7078 26.4966 23.0853 26.465 23.5517H24.9707C25.0024 22.8797 25.1763 22.3046 25.4925 21.8262C25.8127 21.3479 26.2337 20.9823 26.7555 20.7293C27.2813 20.4763 27.8643 20.3498 28.5047 20.3498C29.2004 20.3498 29.8053 20.4881 30.3191 20.7649C30.837 21.0416 31.2362 21.4211 31.5169 21.9033C31.8015 22.3856 31.9438 22.9351 31.9438 23.5517C31.9438 23.9866 31.8766 24.3799 31.7422 24.7317C31.6118 25.0835 31.422 25.3978 31.173 25.6745C30.9279 25.9512 30.6314 26.1963 30.2836 26.4097C29.9357 26.6272 29.657 26.8564 29.4475 27.0976C29.238 27.3347 29.0858 27.6174 28.9909 27.9455C28.8961 28.2736 28.8447 28.6827 28.8368 29.1729V29.244H27.4137ZM28.1727 32.7543C27.8801 32.7543 27.6291 32.6495 27.4196 32.44C27.2101 32.2305 27.1054 31.9795 27.1054 31.687C27.1054 31.3945 27.2101 31.1434 27.4196 30.9339C27.6291 30.7244 27.8801 30.6197 28.1727 30.6197C28.4652 30.6197 28.7162 30.7244 28.9257 30.9339C29.1352 31.1434 29.24 31.3945 29.24 31.687C29.24 31.8807 29.1906 32.0586 29.0917 32.2206C28.9969 32.3827 28.8684 32.5132 28.7063 32.612C28.5482 32.7069 28.3703 32.7543 28.1727 32.7543Z" fill="white"/>
</svg>
