<svg width="38" height="38" viewBox="0 0 38 38" fill="none" xmlns="http://www.w3.org/2000/svg">
<path d="M0.00320158 37.1018C-0.196798 27.6018 9.00313 19.5018 19.3031 22.0018C17.7031 24.5018 17.1032 27.2018 17.7032 30.2018C18.3032 33.1018 19.9031 35.4018 22.3031 37.2018C14.8031 37.1018 7.4032 37.1018 0.00320158 37.1018Z" fill="white"/>
<path d="M24.2032 8.50184C24.2032 13.3018 20.4032 17.2018 15.6032 17.2018C10.7032 17.2018 7.10322 13.3018 7.00322 8.80176C6.90322 3.90176 10.8031 0.101836 15.4031 0.00183567C20.4031 -0.0981643 24.2032 3.90184 24.2032 8.50184Z" fill="white"/>
<path d="M28.3031 19.1018C33.3031 19.1018 37.2031 23.1018 37.2031 28.1018C37.2031 32.9018 33.2031 37.0018 28.1031 37.0018C23.2031 36.9018 19.3031 32.9019 19.3031 27.9019C19.5031 23.1019 23.5031 19.1018 28.3031 19.1018ZM28.4031 21.0018C24.5031 21.0018 21.3031 24.2018 21.3031 28.1018C21.3031 32.0018 24.5031 35.1018 28.4031 35.1018C32.3031 35.1018 35.4031 31.9018 35.4031 28.0018C35.4031 24.1018 32.2031 21.0018 28.4031 21.0018Z" fill="white"/>
<path d="M27.0031 29.3018C26.3031 29.3018 25.7031 29.3018 25.1031 29.3018C24.8031 29.3018 24.5031 29.2019 24.2031 29.0019C23.8031 28.6019 23.6031 28.1018 23.8031 27.6018C24.0031 27.1018 24.4031 26.8018 25.0031 26.8018C25.6031 26.8018 26.3031 26.8018 27.0031 26.8018C27.0031 26.2018 27.0031 25.6019 27.0031 24.9019C27.0031 24.3019 27.2031 23.9018 27.7031 23.7018C28.6031 23.3018 29.5031 23.9019 29.5031 24.9019C29.5031 25.5019 29.5031 26.1018 29.5031 26.8018C29.8031 26.8018 30.2031 26.8018 30.5031 26.8018C30.9031 26.8018 31.4031 26.8019 31.8031 26.9019C32.4031 27.0019 32.8031 27.6018 32.8031 28.3018C32.7031 28.9018 32.2031 29.4019 31.6031 29.4019C31.1031 29.4019 30.5031 29.4019 30.0031 29.4019C29.9031 29.4019 29.8031 29.4019 29.6031 29.4019C29.6031 30.1019 29.6031 30.7018 29.6031 31.3018C29.6031 32.3018 28.6031 32.9019 27.7031 32.5019C27.2031 32.2019 27.0031 31.8018 27.0031 31.3018C27.0031 30.6018 27.0031 29.9018 27.0031 29.3018Z" fill="white"/>
</svg>
